<svg width="100" height="100" viewBox="0 0 100 100" fill="none" xmlns="http://www.w3.org/2000/svg">
<path d="M50 100C77.6142 100 100 77.6142 100 50C100 22.3858 77.6142 0 50 0C22.3858 0 0 22.3858 0 50C0 77.6142 22.3858 100 50 100Z" fill="#FFD9E4"/>
<path d="M72.1202 22H53.4854V76.9095H72.1202C74.4722 76.9095 76.3719 74.9194 76.3719 72.3865V26.523C76.3719 23.9901 74.4722 22 72.1202 22Z" fill="#505050"/>
<path d="M73.8385 25.0757H67.5967V30.4129H73.8385V25.0757Z" fill="#FFB412"/>
<path d="M73.8385 33.3076H67.5967V38.6448H73.8385V33.3076Z" fill="#FFB412"/>
<path d="M73.8385 41.5396H67.5967V46.8767H73.8385V41.5396Z" fill="#FFB412"/>
<path d="M27.1607 52.8472H26.437V56.556H27.1607V52.8472Z" fill="#53C2C9"/>
<path d="M27.1607 43.9819H26.437V47.6908H27.1607V43.9819Z" fill="#53C2C9"/>
<path d="M27.1607 35.0264H26.437V38.7352H27.1607V35.0264Z" fill="#53C2C9"/>
<path d="M66.0587 49.6809V22H30.96C28.4271 22 26.437 23.9901 26.437 26.523V72.477C26.437 74.9194 28.4271 77 30.96 77H69.3153C71.7577 77 73.8383 75.0099 73.8383 72.477V49.6809H66.0587Z" fill="#AB2A67"/>
<path d="M27.1607 61.8027H26.437V65.5116H27.1607V61.8027Z" fill="#53C2C9"/>
<path d="M30.9605 30.2319H26.7089H24.8092C23.8141 30.2319 23 31.0461 23 32.0411V32.8553C23 33.8504 23.8141 34.6645 24.8092 34.6645H26.7089H30.9605C31.9556 34.6645 32.7697 33.8504 32.7697 32.8553V32.0411C32.7697 31.0461 31.9556 30.2319 30.9605 30.2319Z" fill="#505050"/>
<path d="M30.9605 39.1875H26.7089H24.8092C23.8141 39.1875 23 40.0016 23 40.9967V41.8109C23 42.8059 23.8141 43.6201 24.8092 43.6201H26.7089H30.9605C31.9556 43.6201 32.7697 42.8059 32.7697 41.8109V40.9967C32.7697 40.0016 31.9556 39.1875 30.9605 39.1875Z" fill="#505050"/>
<path d="M30.9605 48.0522H26.7089H24.8092C23.8141 48.0522 23 48.8664 23 49.8615V50.6756C23 51.6707 23.8141 52.4848 24.8092 52.4848H26.7089H30.9605C31.9556 52.4848 32.7697 51.6707 32.7697 50.6756V49.8615C32.7697 48.8664 31.9556 48.0522 30.9605 48.0522Z" fill="#505050"/>
<path d="M30.9605 57.0083H26.7089H24.8092C23.8141 57.0083 23 57.8224 23 58.8175V59.6317C23 60.6267 23.8141 61.4409 24.8092 61.4409H26.7089H30.9605C31.9556 61.4409 32.7697 60.6267 32.7697 59.6317V58.8175C32.7697 57.8224 31.9556 57.0083 30.9605 57.0083Z" fill="#505050"/>
<path d="M30.9605 65.8735H26.7089H24.8092C23.8141 65.8735 23 66.6877 23 67.6827V68.4969C23 69.492 23.8141 70.3061 24.8092 70.3061H26.7089H30.9605C31.9556 70.3061 32.7697 69.492 32.7697 68.4969V67.6827C32.7697 66.6877 31.9556 65.8735 30.9605 65.8735Z" fill="#505050"/>
<path d="M65.4257 58.727L59.6362 52.6661C59.5458 52.5757 59.3648 52.5757 59.2744 52.6661L56.9224 54.9277C56.8319 55.0181 56.8319 55.199 56.9224 55.2895L57.0129 55.38C55.2037 55.4704 51.6757 53.4803 49.4142 51.3092C47.2431 49.0477 45.4339 45.4293 45.5244 43.6201L45.6148 43.7106C45.7053 43.801 45.8862 43.801 45.9767 43.7106L48.3286 41.449C48.4191 41.3586 48.4191 41.1777 48.3286 41.0872L42.5392 35.0263C42.4487 34.9359 42.2678 34.9359 42.1773 35.0263L39.8254 37.2879C39.7349 37.3783 39.7349 37.5592 39.8254 37.6497C38.6494 39.278 38.2875 40.9967 39.1017 43.2582C39.4635 44.4342 41.0918 48.6859 46.429 54.2944C51.8566 59.903 56.0178 61.5313 57.1938 61.9836C59.4553 62.7977 61.174 62.6168 62.8023 61.4408C62.8928 61.5313 63.0737 61.5313 63.1642 61.4408L65.5161 59.1793C65.5161 58.9984 65.5162 58.8175 65.4257 58.727Z" fill="white"/>
</svg>
