<svg xmlns="http://www.w3.org/2000/svg" viewBox="0 0 500 500"><g id="freepik--Floor--inject-6"><ellipse id="freepik--floor--inject-6" cx="249.77" cy="342.49" rx="239.44" ry="138.24" style="fill:#f5f5f5"></ellipse></g><g id="freepik--Shadows--inject-6"><ellipse id="freepik--Shadow--inject-6" cx="270.3" cy="399.99" rx="68.15" ry="39.35" style="fill:#e0e0e0"></ellipse><path id="freepik--shadow--inject-6" d="M147.9,293.24,31.18,360.63c-4.79,2.76-4.79,7.24,0,10L156,442.71c4.78,2.77,12.54,2.77,17.32,0l116.73-67.39c4.78-2.76,4.78-7.24,0-10L165.22,293.24C160.44,290.48,152.69,290.48,147.9,293.24Z" style="fill:#e0e0e0"></path><path id="freepik--shadow--inject-6" d="M306,351.24l73.32-42.42a7.89,7.89,0,0,1,7.13,0l83.69,48.33c2,1.13,2,3,0,4.12l-73.32,42.42a7.86,7.86,0,0,1-7.13,0L306,355.37C304.06,354.23,304.06,352.38,306,351.24Z" style="fill:#e0e0e0"></path></g><g id="freepik--Nightstand--inject-6"><g id="freepik--nightstand--inject-6"><polygon points="321.87 359.38 334.64 352 321.87 348.31 321.87 359.38" style="fill:#AB2A67"></polygon><polygon points="385.88 385.27 385.88 397.04 459.57 354.4 459.57 342.63 385.88 385.27" style="fill:#AB2A67"></polygon><polygon points="465.96 250.4 392.27 293.03 392.27 388.96 465.96 346.32 465.96 250.4" style="fill:#AB2A67"></polygon><polygon points="465.96 250.4 392.27 293.03 392.27 388.96 465.96 346.32 465.96 250.4" style="fill:#fff;opacity:0.55"></polygon><polygon points="392.27 293.03 309.08 245 309.08 340.93 392.27 388.96 392.27 293.03" style="fill:#AB2A67"></polygon><polygon points="309.08 245 382.77 202.36 465.96 250.4 392.27 293.03 309.08 245" style="fill:#AB2A67"></polygon><polyline points="383.56 288 309.08 245 382.77 202.36 465.96 250.4 392.27 293.03 383.56 288" style="fill:#fff;opacity:0.8"></polyline><polygon points="385.88 296.72 315.47 256.07 315.47 278.21 385.88 318.86 385.88 296.72" style="fill:#fff;opacity:0.55"></polygon><polygon points="385.88 326.24 315.47 285.59 315.47 337.24 385.88 377.9 385.88 326.24" style="opacity:0.1"></polygon><polygon points="385.88 397.04 379.49 393.35 379.49 381.58 385.88 385.27 385.88 397.04" style="fill:#AB2A67"></polygon><polygon points="385.88 397.04 379.49 393.35 379.49 381.58 385.88 385.27 385.88 397.04" style="fill:#fff;opacity:0.55"></polygon><polygon points="321.87 359.38 315.47 355.69 315.47 344.62 321.87 348.31 321.87 359.38" style="fill:#AB2A67"></polygon><polygon points="321.87 359.38 315.47 355.69 315.47 344.62 321.87 348.31 321.87 359.38" style="fill:#fff;opacity:0.55"></polygon><path d="M364.06,288.79c0,1-3.05.08-6.81-2.09l-11.94-6.89c-3.76-2.17-6.81-4.76-6.81-5.78v-1.85l25.56,14.76Z" style="opacity:0.2"></path><polygon points="315.47 337.24 359.9 311.24 385.88 326.24 385.88 377.9 315.47 337.24" style="opacity:0.1"></polygon></g></g><g id="freepik--teddy-bear--inject-6"><g id="freepik--teddy-bear--inject-6"><path d="M379.21,239.17c-1.76,3.76-15.37,12.78-19,14.58-1.91.95-5.75,2.42-8.31,2.4-6.51-.06-10.19-3.53-13.16-11.24-2-5.1-3.49-17.85,4.07-20.74,8.5-3.22,14.64,5.24,14.64,5.24s9-3.61,15.12-2.62S380.94,235.39,379.21,239.17Z" style="fill:#9a4a4d"></path><path d="M353,234.94c-2.23-4.54-5.31-7.08-8.21-8a5.89,5.89,0,0,0-7.09,3.94,27,27,0,0,0,1.1,14c2.76,7.18,6.15,10.67,11.84,11.17C358,255.23,356.41,242,353,234.94Z" style="opacity:0.1"></path><path d="M351.58,248.09c0,3.68-2.24,5.37-5,3.77s-5-5.86-5-9.53,2.24-5.37,5-3.78S351.58,244.41,351.58,248.09Z" style="fill:#f28f8f;opacity:0.5"></path><path d="M346.11,234.38c0,1.39-.85,2-1.89,1.43a4.51,4.51,0,0,1-1.89-3.61c0-1.39.84-2,1.89-1.43A4.53,4.53,0,0,1,346.11,234.38Z" style="fill:#f28f8f;opacity:0.5"></path><path d="M352.05,238.44c0,1.39-.85,2-1.89,1.43a4.51,4.51,0,0,1-1.89-3.61c0-1.39.84-2,1.89-1.43A4.53,4.53,0,0,1,352.05,238.44Z" style="fill:#f28f8f;opacity:0.5"></path><path d="M341.71,237c0,1.39-.85,2-1.89,1.42a4.53,4.53,0,0,1-1.89-3.61c0-1.39.85-2,1.89-1.43A4.55,4.55,0,0,1,341.71,237Z" style="fill:#f28f8f;opacity:0.5"></path><path d="M361.64,237.35a16.1,16.1,0,0,0-1.62-8.84c-1.55.5-2.55.9-2.55.9A31.13,31.13,0,0,1,361.64,237.35Z" style="opacity:0.1"></path><path d="M386.22,191.93c-6.86-1.91-23.4,13.1-25,15.89s.35,11.68,7.61,11.64c4.34,0,19.14-15.05,21.33-18.74S386.22,191.93,386.22,191.93Z" style="fill:#9a4a4d"></path><path d="M427.53,229.08c-2.11,14.43-12,19.76-21,21.44a43.11,43.11,0,0,1-12,.47c-8.58-.85-24-4.1-27.82-19.88-.21-1-.4-1.94-.55-3-2.46-18.37,14-24.23,14-24.23,1.41-13,12.1-20.58,19.27-19.82C415.48,185.78,430.71,207.41,427.53,229.08Z" style="fill:#b16668"></path><path d="M399.42,184.08c-6.77-.72-16.69,6-18.95,17.73,3.39-.4,7-1.38,9-2.71a5,5,0,0,0,4.43,2.91c3.47.29,4.73-1.17,4.73-1.17s4.95,6.37,8.35,8.11a10.65,10.65,0,0,0,7.07.67l2.82,13.22a17.9,17.9,0,0,1-12.65,21.07l-.92.23c-15.17,3.59-30.54.49-35.83-10.22h0c4.85,13.37,18.93,16.27,27,17.07a43.11,43.11,0,0,0,12-.47c9-1.68,18.94-7,21-21.44C430.71,207.41,415.48,185.78,399.42,184.08Z" style="opacity:0.1"></path><path d="M418.65,194.2c-4.12,1.69-3.39,7.8-1.08,17.24,2.68,11,11.09,35.06,11.09,35.06s3,5,11.74-.75,5.71-11,5.71-11S427.14,190.7,418.65,194.2Z" style="fill:#9a4a4d"></path><path d="M399,142.26c1.45-4-7.24-15.92-17.81-8.84-9.64,6.47-3.2,19.61,4,20.21S399,142.26,399,142.26Z" style="fill:#9a4a4d"></path><path d="M385.38,150.84c-3.69-.5-8.67-5.51-5.05-10.58a6.36,6.36,0,0,1,10.22-.62c2.08,2.75,1.39,6.78,1.39,6.78Z" style="fill:#f28f8f"></path><path d="M379.93,171.45a27,27,0,0,1,31.58-31.94,29.11,29.11,0,0,1,23,25.53c1.51,15.84-8.89,26.44-24.74,28a28.89,28.89,0,0,1-17.31-3.82A26.94,26.94,0,0,1,379.93,171.45Z" style="fill:#b16668"></path><path d="M407.38,193.12c.81,0,1.62,0,2.42-.12,15.85-1.52,26.25-12.12,24.74-28a28.54,28.54,0,0,0-4.6-13c.54.84-1.26,3.77-1.26,3.77,1.94,4,3.67,9.61,2.13,15.2C428.45,179.61,422,188.69,407.38,193.12Z" style="opacity:0.1"></path><path d="M392.26,196.25s3.85-5.23,2.77-7.39c-5.06-4.46-14.7-6.85-16.91-6.17-4,1.21-5.23,14.68-1.28,16.11S392.26,196.25,392.26,196.25Z" style="fill:#AB2A67"></path><path d="M391.52,192.84c-1.65-.91-8.43-5.21-9-3.79-.72,1.79,7.43,4.29,7.43,4.29s-8.3-.21-7.94,1.82c.24,1.37,8.81-.79,8.81-.79Z" style="opacity:0.1"></path><path d="M392.25,191.65l-.15.14a5.25,5.25,0,0,0-1.28,2.58,4.76,4.76,0,0,0,0,2.28c.91,3.1,5.56,3.61,8,2.14a4.36,4.36,0,0,0,2-4.44,4.11,4.11,0,0,0-3.9-3.31c-.83-.06-1.64,0-2.44-.12A2.83,2.83,0,0,0,392.25,191.65Z" style="fill:#AB2A67"></path><path d="M392.25,191.65l-.15.14a5.25,5.25,0,0,0-1.28,2.58,4.76,4.76,0,0,0,0,2.28c.91,3.1,5.56,3.61,8,2.14a4.36,4.36,0,0,0,2-4.44,4.11,4.11,0,0,0-3.9-3.31c-.83-.06-1.64,0-2.44-.12A2.83,2.83,0,0,0,392.25,191.65Z" style="opacity:0.2"></path><path d="M397.69,170.73c-9-3-15.73-2-18.39,4.56-2.54,6.27,3.11,16.32,14.73,18.11,5.91.92,10.16.43,15.56-3.32C412.13,180.86,406.57,173.69,397.69,170.73Z" style="fill:#f28f8f"></path><path d="M387.05,172.71c2.71-2.58,9.31-.12,9.91,2,.79,2.8-3.87,6.18-7.34,4.9C387.52,178.85,384.66,175,387.05,172.71Z" style="fill:#9a4a4d"></path><path d="M398.86,193.8s14.68-7.39,19.94-3.19c2.82,2.25-.31,14.51-3.84,15.57-5.12,1.53-12.81-3.84-16.54-8.23A5.07,5.07,0,0,1,398.86,193.8Z" style="fill:#AB2A67"></path><path d="M422,153.16a6,6,0,0,1,0-4.35c1.29-3.32,4.78-9.08,13.28-7.94,11.38,1.53,13.1,20.45-2.38,22.48a5.52,5.52,0,0,1-3.66-.78C425.16,160,423,155.72,422,153.16Z" style="fill:#9a4a4d"></path><path d="M422.9,155.18a19.78,19.78,0,0,0,4.2,5.73C436.05,162,438,154.5,436,150.77,433.74,146.71,424.78,145.62,422.9,155.18Z" style="fill:#f28f8f"></path><path d="M391.13,208.54c-11.51-3.1-21.95,4.22-22.78,15s14.43,19.79,27.86,14.74S404.77,212.22,391.13,208.54Z" style="fill:#f28f8f;opacity:0.5"></path><path d="M410.81,253.3c-.82,5-5,18.87-10.87,23.9a8.56,8.56,0,0,1-4,1.86c-5.19.72-9.12-1.08-12.72-5.07a21.6,21.6,0,0,1-3.36-5.9c-1.09-2.64-4.58-17.64.8-21.53,5.57-4,11-1.93,12.8-.19a44.45,44.45,0,0,1,6-4.93c3.95-2.41,7.81-.34,10,2.8C410.29,245.4,411.6,248.48,410.81,253.3Z" style="fill:#9a4a4d"></path><path d="M383,248.38a5.19,5.19,0,0,0-5.12,4.67,40.9,40.9,0,0,0,2,15,21.6,21.6,0,0,0,3.36,5.9,16.09,16.09,0,0,0,5.61,4.23c2.14.75,6.68.56,8.21-3.27,1.67-4.18.08-15.56-4.66-21.88A11.55,11.55,0,0,0,383,248.38Z" style="opacity:0.1"></path><ellipse cx="387.64" cy="266.83" rx="4.67" ry="8.25" transform="translate(-73.53 173.09) rotate(-23.05)" style="fill:#f28f8f;opacity:0.5"></ellipse><path d="M387.13,255.17c0,1.5-.91,2.19-2,1.54a4.88,4.88,0,0,1-2-3.89c0-1.5.91-2.19,2-1.54A4.86,4.86,0,0,1,387.13,255.17Z" style="fill:#f28f8f;opacity:0.5"></path><path d="M393.52,259.55c0,1.49-.91,2.18-2,1.53a4.85,4.85,0,0,1-2-3.89c0-1.49.91-2.18,2-1.53A4.87,4.87,0,0,1,393.52,259.55Z" style="fill:#f28f8f;opacity:0.5"></path><path d="M382.39,258c0,1.5-.91,2.19-2,1.54a4.86,4.86,0,0,1-2-3.89c0-1.5.91-2.19,2-1.54A4.88,4.88,0,0,1,382.39,258Z" style="fill:#f28f8f;opacity:0.5"></path><path d="M394.54,245.36l-1.1,1a17.77,17.77,0,0,1,4.21,6.45A10.31,10.31,0,0,0,394.54,245.36Z" style="opacity:0.1"></path><path d="M398.37,194.94a5.25,5.25,0,0,0-.18,1c.61.76,8.51,4.69,8.83,3.32s-7.19-3.81-7.19-3.81,9-.68,8.68-2.31C408.27,192.06,399.44,194.2,398.37,194.94Z" style="opacity:0.1"></path><circle cx="385.67" cy="163.78" r="3.15" style="fill:#263238"></circle><circle cx="408.77" cy="168.21" r="3.15" style="fill:#263238"></circle></g></g><g id="freepik--speech-bubble--inject-6"><g id="freepik--speech-bubble--inject-6"><g id="freepik--speech-bubble--inject-6"><g id="freepik--speach-bubble--inject-6"><path d="M284.66,55.56l-41.15,23.7a3.64,3.64,0,0,0-1.64,2.85v47.18a3.61,3.61,0,0,0,1.65,2.83l5.89,3.3a3.66,3.66,0,0,0,3.29,0l41.15-23.7a3.64,3.64,0,0,0,1.64-2.85V61.67a3.61,3.61,0,0,0-1.65-2.83L288,55.54A3.66,3.66,0,0,0,284.66,55.56Z" style="fill:#AB2A67"></path><path d="M251.06,134.45V87.28a3.65,3.65,0,0,1,1.64-2.85l41.15-23.71c.91-.52,1.64-.1,1.64,1v47.18a3.64,3.64,0,0,1-1.64,2.85L252.7,135.4C251.8,135.93,251.06,135.5,251.06,134.45Z" style="fill:#AB2A67"></path><path d="M252.7,135.4a3.73,3.73,0,0,1-3.29,0l-5.89-3.31a3.55,3.55,0,0,1-1.65-2.82V82.11a3.36,3.36,0,0,1,.52-1.68l9.16,5.23a3.21,3.21,0,0,0-.49,1.62v47.17C251.06,135.41,251.74,136,252.7,135.4Z" style="opacity:0.2"></path><path d="M295.47,61.38c-.13-.83-.8-1.13-1.62-.66L252.71,84.43a3.21,3.21,0,0,0-1.16,1.23l-9.17-5.23a3.34,3.34,0,0,1,1.13-1.17l41.15-23.7a3.63,3.63,0,0,1,3.29,0l5.89,3.3A3.61,3.61,0,0,1,295.47,61.38Z" style="fill:#fff;opacity:0.4"></path></g><path d="M241.87,98.28l-13.23,13.45a1.46,1.46,0,0,0,.25,2.25c.27.17,9.16,5.26,9.16,5.26l13-15.67Z" style="fill:#AB2A67"></path><path d="M241.87,98.28l-13.23,13.45a1.46,1.46,0,0,0,.25,2.25c.27.17,9.16,5.26,9.16,5.26l13-15.67Z" style="opacity:0.1"></path><path d="M251.06,103.57,237.84,117a1.45,1.45,0,0,0,1.24,2.46l12-1.72C252.35,117.76,252.35,103.57,251.06,103.57Z" style="fill:#AB2A67"></path></g><path d="M259.13,103.09a17.32,17.32,0,0,1,1.75-7.31h0l0,0a14.53,14.53,0,0,1,5.29-6.26c3.06-1.8,5.7.46,6.71,3.87a.33.33,0,0,0,.65,0c.91-4.65,3.56-10.25,6.72-12.1,2.11-1.23,4-1.12,5.32,0l0,0h0c1.12,1,1.8,2.8,1.82,5.2,0,7.46-5.14,14.62-9.48,22.07l-4.67,7.23-4.51-1.85C264.39,111.61,259.17,110.54,259.13,103.09Z" style="fill:#fafafa"></path></g></g><g id="freepik--Characters--inject-6"><g id="freepik--Character--inject-6"><path d="M300.47,350.57a20.46,20.46,0,0,0-1.77-4.77c-1.89-3.67-4.66-6.11-7.15-5.92a3.39,3.39,0,0,0-1.44.46c-.76.45-7.93,4.58-8.35,4.82a4.67,4.67,0,0,0-1.89,2.22c-.16.34-.32.67-.5,1l-.51-.06c-17.41-3-39.65-12.07-58.5-22.95a311,311,0,0,1-58.81-44.9c-4-3.91-7.14-10-9.2-16.6a19.15,19.15,0,0,0-2.81-5.67c-2.41-3.27-5.21-4.32-7.21-3.09-.79.47-6.8,3.87-8.41,4.86A4.78,4.78,0,0,0,132,262.4c-1.26,3.13-.83,7.85.86,11.94a.24.24,0,0,1,0,.07c.18.37.35.76.53,1.13A16.41,16.41,0,0,0,135,278.2a13.9,13.9,0,0,0,1.18,1.38c22.43,25.29,50.57,48.26,75.75,62.8s53.38,24.09,75.83,24.68a5,5,0,0,0,.69,0,3.32,3.32,0,0,0,1.36-.41c.12-.07,8-4.61,8.37-4.83a4.25,4.25,0,0,0,.39-.25,2.48,2.48,0,0,0,.53-.45C301,359.27,301.57,355.19,300.47,350.57Z" style="fill:#455a64"></path><path d="M292.06,355.42a20.8,20.8,0,0,0-1.77-4.77c-1.9-3.66-4.66-6.1-7.15-5.91a4,4,0,0,0-3.27,2.64c-2,4.4-5.42,6.46-9.42,5.77-17.41-3-39.65-12.06-58.51-22.95a309.74,309.74,0,0,1-58.8-44.9c-4-3.9-7.15-9.95-9.21-16.59a19.55,19.55,0,0,0-2.8-5.68c-2.42-3.26-5.21-4.31-7.21-3.08A4.78,4.78,0,0,0,132,262.4c-1.26,3.13-.83,7.85.86,11.94a.24.24,0,0,1,0,.07c.18.37.35.76.53,1.13A16.41,16.41,0,0,0,135,278.2a13.9,13.9,0,0,0,1.18,1.38c22.43,25.29,50.57,48.26,75.75,62.8s53.38,24.09,75.83,24.68a5,5,0,0,0,.69,0,3.21,3.21,0,0,0,1.7-.63,2.31,2.31,0,0,0,.53-.46C292.53,364.13,293.16,360.05,292.06,355.42Z" style="fill:#37474f"></path><path d="M300.47,350.56a21.18,21.18,0,0,0-1.76-4.76c-1.9-3.67-4.66-6.11-7.16-5.91a3.33,3.33,0,0,0-1.45.45c-.76.45-7.92,4.58-8.34,4.82l0,0a3.48,3.48,0,0,1,1.42-.45c2.49-.19,5.25,2.25,7.15,5.92a21,21,0,0,1,1.77,4.76c1.1,4.63.47,8.7-1.37,10.58a2.08,2.08,0,0,1-.53.45.94.94,0,0,0-.12.09c1.27-.73,7.78-4.5,8.15-4.7a2.26,2.26,0,0,0,.38-.25,2.31,2.31,0,0,0,.54-.45C300.94,359.26,301.58,355.19,300.47,350.56Z" style="fill:#263238"></path><path d="M188.32,185.58c-4.15-52.87-19.56-81.91-24.28-118.17,0-.23-.06-.46-.08-.67-.68-5-.83-8.22-4.32-10.23-1.08-.63-2.95-1.59-3.55-1.23l-7.42,4.23a2.5,2.5,0,0,1,2.49.37c3.49,2,3.71,6.74,4.39,11.7,0,.23,0,.46.08.69,4.71,36.26,20.12,65.29,24.28,118.16s-4.06,79.48-16.19,104.74l8.33-4.82C184.17,265.1,192.46,238.46,188.32,185.58Z" style="fill:#263238"></path><path d="M179.91,190.43c-4.16-52.87-19.57-81.9-24.28-118.16,0-.23-.06-.46-.08-.69-.68-5-.9-9.69-4.39-11.7a2.5,2.5,0,0,0-2.49-.37c-1.34.77-1.55,3.69-1,7.55.07.6.14,1.21.23,1.82,4.72,36.27,20.13,66.66,24.27,119.54s-4.13,74.35-16.27,99.61c2.39,2.28,5,4.67,7.78,7.14C175.85,269.91,184.05,243.31,179.91,190.43Z" style="fill:#37474f"></path><path d="M247.76,297.22l-70.51-40.71c.73-3.49,1.34-7.06,1.85-10.66l67.13,38.78C247.32,285.2,248.3,297.55,247.76,297.22Z" style="fill:#37474f"></path><polygon points="254.64 279.77 187.48 241 179.1 245.85 246.23 284.63 254.64 279.77" style="fill:#263238"></polygon><path d="M260.21,350.86C248.08,311.6,243.84,282.44,244,229.2c2.42.83,4.94,1.74,7.55,2.7-.11,53.25,3.36,79,16.72,120.84C265.57,352.21,262.9,351.59,260.21,350.86Z" style="fill:#37474f"></path><path d="M268.22,352.74c-13.36-41.84-16.83-67.59-16.72-120.84l8.41-4.85c-.1,53.24,3.37,79,16.73,120.84Z" style="fill:#263238"></path><path d="M179.85,239.65c-.17,1.73-.44,3.9-.75,6.2L244,229.2l-10-3.44-54.1,13.89" style="fill:#37474f"></path><polygon points="246.23 284.63 209.75 237.98 213.68 236.98 245.6 277.78 246.23 284.63" style="fill:#37474f"></polygon><path d="M245.6,277.78,213.68,237l10.16-2.61,20.69,26.45C244.76,266.28,245.12,272,245.6,277.78Z" style="fill:#263238"></path><polygon points="229.44 224.22 204.08 230.73 205.84 232.98 233.95 225.76 229.44 224.22" style="fill:#263238"></polygon><polygon points="204.08 230.73 188.24 234.79 179.85 239.65 205.84 232.98 204.08 230.73" style="fill:#263238"></polygon><polygon points="204.08 230.73 188.24 234.79 179.85 239.65 205.84 232.98 204.08 230.73" style="opacity:0.15"></polygon><path d="M218.17,227.11l-8.4,4.86-18.3-23.39a153.73,153.73,0,0,0,19.06,8.77Z" style="fill:#263238"></path><path d="M218.17,227.11l-8.4,4.86-18.3-23.39a153.73,153.73,0,0,0,19.06,8.77Z" style="opacity:0.15"></path><path d="M209.77,232l-3.93,1-25.27-32.33a48.35,48.35,0,0,0,10.9,7.93Z" style="fill:#37474f"></path><path d="M272.61,219.55h0c-24.15-14-65-16.57-85.08-42.51l-8.41,4.86c.67,6.6,1.16,12.87,1.45,18.76,12.89,13.17,48.41,22.9,70.33,31,3.18,1.18,6.5,4.21,9,8.79,1.48,2.75,3.5,4.85,5.66,5.46a3.42,3.42,0,0,0,2.8-.32c1.29-.78,7.51-4.36,8.3-4.79,1.34-.74,2.32-2.45,2.65-4.84C280.14,229.77,276.82,222,272.61,219.55Z" style="fill:#455a64"></path><path d="M264.2,224.4h0c-24.15-13.94-64.95-16.57-85.08-42.5.67,6.6,1.16,12.87,1.45,18.76,12.89,13.17,48.41,22.9,70.33,31,3.18,1.18,6.5,4.21,9,8.79,1.48,2.75,3.5,4.85,5.66,5.46,2.66.76,4.82-1.3,5.33-5.1C271.72,234.62,268.41,226.83,264.2,224.4Z" style="fill:#37474f"></path><path d="M247.76,297.22,140.5,359.12,139,346.53l107.2-62.37C246.65,288.75,247.22,293.48,247.76,297.22Z" style="fill:#263238"></path><path d="M256.68,264.88v4.55a16.48,16.48,0,0,1-8,13.29l-94.27,55a18.3,18.3,0,0,1-15.89-.32l-55.12-32a17.36,17.36,0,0,1-7.86-13.61v-4.55a16.46,16.46,0,0,1,8-13.28l94-49.41c4.44-2.33,8.07-4.16,12.56-1.92l58.51,29.07A16.05,16.05,0,0,1,256.68,264.88Z" style="fill:#AB2A67"></path><path d="M148.46,339.35a17.89,17.89,0,0,1-10-1.9l-55.12-32c-4.33-2.52-7.86-8.6-7.86-13.61v-4.56c0-4.58,3-9.91,6.9-12.57-3.28,2.34-3,5.77,1,8l55.12,32a17,17,0,0,0,8.12,2Z" style="opacity:0.1"></path><path d="M154.37,315.07,248.64,260c4.44-2.33,4.41-6-.08-8.28l-58.51-29.07c-4.49-2.24-8.12-.41-12.56,1.92L83.54,274c-4.44,2.33-4.52,6.24-.18,8.74l55.12,32A18.3,18.3,0,0,0,154.37,315.07Z" style="fill:#AB2A67"></path><path d="M154.37,315.07,248.64,260c4.44-2.33,4.41-6-.08-8.28l-58.51-29.07c-4.49-2.24-8.12-.41-12.56,1.92L83.54,274c-4.44,2.33-4.52,6.24-.18,8.74l55.12,32A18.3,18.3,0,0,0,154.37,315.07Z" style="fill:#fff;opacity:0.4"></path><path d="M173.05,148.25c1.38-1.36,2.56-4.06,3.5-7.71,9.7-25.46,4.65-56.38-6.22-74.88-.18-.33-.37-.66-.56-1a24.34,24.34,0,0,0-13.39-9.83,22.12,22.12,0,0,0-5.38-1L66.34,102.71l-13.88,8-.07.05a13.27,13.27,0,0,0-6.56,11.84c.08,2.52.18,5.12.32,6.94l9.16-12.17a23.73,23.73,0,0,1,9.12,8.1C76.83,145.72,82.13,182,67.71,209c28.66,20.76,16.91,74.44,16.91,74.44L190,222.7v0C190.11,222,201.53,168.88,173.05,148.25Z" style="fill:#AB2A67"></path><path d="M166.73,61c-.41-.41-.83-.8-1.25-1.16l-.09-.07A25.7,25.7,0,0,0,152.5,54a14,14,0,0,0-1.5-.14L66.34,102.71l-9,5.21-5,2.86a13.26,13.26,0,0,0-6.53,11.82c.08,2.52.18,5.12.32,6.94l9.16-12.17a23.92,23.92,0,0,1,6,4.35L166.76,61Z" style="fill:#fff;opacity:0.4"></path><g style="opacity:0.30000000000000004"><path d="M151.52,151.19c.22,1.62,1.62,2.23,3.14,1.35A4.93,4.93,0,0,0,157,148c-.22-1.62-1.62-2.22-3.13-1.35A4.93,4.93,0,0,0,151.52,151.19Z" style="opacity:0.4"></path><path d="M135.58,160.39c.22,1.62,1.62,2.23,3.14,1.36a5,5,0,0,0,2.34-4.52c-.22-1.62-1.62-2.23-3.13-1.35A4.91,4.91,0,0,0,135.58,160.39Z" style="opacity:0.4"></path><path d="M119.64,169.6c.22,1.62,1.62,2.23,3.13,1.35a4.91,4.91,0,0,0,2.35-4.51c-.22-1.63-1.62-2.23-3.14-1.36A4.94,4.94,0,0,0,119.64,169.6Z" style="opacity:0.4"></path><path d="M103.7,178.8c.22,1.63,1.62,2.23,3.13,1.36a4.93,4.93,0,0,0,2.35-4.52c-.22-1.62-1.62-2.23-3.14-1.35A4.93,4.93,0,0,0,103.7,178.8Z" style="opacity:0.4"></path></g><path d="M67.71,209c14.42-27.06,9.12-63.32-3.28-83.57A23.91,23.91,0,0,0,54,116.73a5.88,5.88,0,0,0-8.17,5.64c1.79,52.55,21.14,88.56,21.14,150.9l17.69,10.21S96.37,229.8,67.71,209Z" style="fill:#AB2A67"></path><path d="M67.71,209c14.42-27.06,9.12-63.32-3.28-83.57A23.91,23.91,0,0,0,54,116.73a5.88,5.88,0,0,0-8.17,5.64c1.79,52.55,21.14,88.56,21.14,150.9l17.69,10.21S96.37,229.8,67.71,209Z" style="opacity:0.2"></path><g id="freepik--character--inject-6"><path d="M305.92,389.72A72.7,72.7,0,0,1,290,371a106.44,106.44,0,0,1-11-25.33c-5.89-20-17.73-60.79-20.6-67.5-4.08-9.57-33.21-27.9-47.63-38.19a338.43,338.43,0,0,0-34-21.19l-31.08-7.28c-2.62,10.57-4.77,18.77-1.73,29.82s12.32,19.32,26.86,28.79c12,7.83,47.37,19.77,51,21.59s7.47,1.79,8.28,8.94,0,10.3,6.4,19.85c8.25,12.24,23.36,28.29,27.94,41.07a20.52,20.52,0,0,1-.14,8.61c-2.89,10.77,6.43,11.56,12,18.61,3,3.83,4.84,7.86,9.15,10.51a31.06,31.06,0,0,0,12.92,4.23c4.11.41,10.63-.53,13.27-3.14C315.74,396.27,309.73,392.84,305.92,389.72Z" style="fill:#ffa8a7"></path><path d="M311.82,400.46c4.25-4.12-.49-7.07-4.35-10-1.91-1.45-5.08-4.1-6.77-5.54h0s3.62,3.21-.81,4.43c-9.07,2.49-17.77-6-21.73-11.07a46.9,46.9,0,0,0-7.11-7.55c-3.07-2.53-5.63-4.42-6.42-7.8h0a21.08,21.08,0,0,1-.74,6.78c-2.94,11,6.67,12.21,12.3,19.38,3.06,3.9,5,7.9,9.32,10.71a28.3,28.3,0,0,0,13.06,4.37C302.76,404.59,308.61,403.56,311.82,400.46Z" style="fill:#455a64"></path><path d="M178.9,219.12s18,9.86,43.81,28.33,32.64,23.37,36,29.34,15.69,52.94,15.69,52.94-5.8,12-21.86,11.72c0,0-15.07-17.69-18.24-22.25s-4.47-11.07-5.17-17.32-2.23-7.13-22.32-14.4S157.85,268.69,147,250.71s-7.92-31.89-7.92-31.89Z" style="fill:#AB2A67"></path><path d="M178.9,219.12c-2.19-1.33,16.16,8.73,43.81,28.33,25.88,18.35,32.64,23.37,36,29.34s15.69,52.94,15.69,52.94-5.8,12-21.86,11.72c0,0-15.07-17.69-18.24-22.25s-4.47-11.07-5.17-17.32-2.23-7.13-22.32-14.4S157.85,268.69,147,250.71s-7.92-31.89-7.92-31.89Z" style="opacity:0.5"></path><path d="M231.81,299.28c.2-8.95-10.23-16-19-22.2-7.47-5.29-39.83-27.91-39.83-27.91,7.71-14.51,6-30,6-30L142.5,231A40.17,40.17,0,0,0,144,241.29c3,11.05,12.32,19.32,26.86,28.79,6.63,4.31,20,10.61,31.3,15.7,1.58.59,3.13,1.16,4.63,1.7,20.09,7.27,21.61,8.14,22.32,14.4s2,12.76,5.17,17.32c.45.65,1.15,1.57,2,2.66h0C230.77,311.8,231.69,304.41,231.81,299.28Z" style="opacity:0.1"></path><path d="M270,405.09A83.84,83.84,0,0,1,253.75,386a105,105,0,0,1-11.41-25.16c-6.23-20-18.78-60.05-21.69-66.86-5.54-13-54.47-43-54.47-43,3.63-5.19,11.49-26.13,12.43-31.92l-67.2,8c-.62,14.5.59,25.39,4.33,33.9,5.07,11.54,8.88,19.08,24.25,27.19,12.93,6.82,40.55,15.93,44.24,17.78s7.6,1.82,8.42,9.1,0,10.5,6.52,20.21c8.4,12.47,23.83,28.51,28.5,41.53a21.22,21.22,0,0,1-.42,8.84c-2.95,11,6.77,12,12.4,19.16,3.06,3.9,4.93,8,9.32,10.71a31.66,31.66,0,0,0,13.16,4.3c4.18.42,10.69-.45,13.9-3.55C280.28,412.19,273.24,407.89,270,405.09Z" style="fill:#ffa8a7"></path><path d="M276,416.3c4.25-4.11-1.85-8.19-5.1-11-1.73-1.48-4.31-3.24-5.87-4.85h0s3.11,3.54-1.79,4.85c-9.09,2.43-17.77-6-21.73-11.07a46.78,46.78,0,0,0-7.11-7.54c-3.07-2.54-5.64-4.42-6.42-7.81l-.09,0a20.89,20.89,0,0,1-.65,6.76c-2.95,11,6.77,12,12.4,19.16,3.06,3.9,4.93,8,9.32,10.71a31.66,31.66,0,0,0,13.16,4.3C266.31,420.27,272.82,419.4,276,416.3Z" style="fill:#455a64"></path><path d="M106.75,226.7c1,13.74,2.35,39.34,18.6,53.12,22.23,18.84,60.74,25.57,63.09,33.08s1.49,12.46,7.27,21.31c5.53,8.48,21.13,23.83,21.13,23.83s15.72-.07,22.07-7.88c0,0-12.17-46.13-16.67-57.12s-55.52-42-55.52-42,12.57-13.78,11.81-31.85C178.53,219.17,105.74,213,106.75,226.7Z" style="fill:#AB2A67"></path><path d="M106.75,226.7c1,13.74,2.35,39.34,18.6,53.12,22.23,18.84,60.74,25.57,63.09,33.08s1.49,12.46,7.27,21.31c5.53,8.48,21.13,23.83,21.13,23.83s15.72-.07,22.07-7.88c0,0-12.17-46.13-16.67-57.12s-55.52-42-55.52-42,12.57-13.78,11.81-31.85C178.53,219.17,105.74,213,106.75,226.7Z" style="opacity:0.4"></path><path d="M110.13,76.68c-9.6,12.31-8.45,29.73-8.45,29.73a9.8,9.8,0,0,0-10,9.35c-1,9.51,7.92,12,7.92,12s-6.06,5.27-4.45,13c2.27,10.83,13.34,11.64,22.65,9.26,12.72-3.25,18.22-12,18.22-12Z" style="fill:#263238"></path><circle cx="152.71" cy="136.38" r="11.1" transform="translate(-43.9 79.23) rotate(-25.56)" style="fill:#263238"></circle><path d="M153,140.48c13.52,0,16.87,1.9,23.22,8.66s17.2,30.91,19.93,41.89,2.26,16-17.82,27.08S153,140.48,153,140.48Z" style="fill:#f28f8f"></path><path d="M156.48,69c-24.17-12.47-43.71-1.33-49.95,14.21-4.16,10.36-1.6,22.6,3.6,31.27,2.73,4.55,3.76,6.49,6,9.14s4.47,4.89,6.15,5.35l.58-7.26a25,25,0,0,0,11.86,4.09l6.57.6c15.6,1.43,23.86-12.61,32.39-29.93C182,79.49,167.76,74.8,156.48,69Z" style="fill:#263238"></path><path d="M162.18,80.73c3.56,2.51,7.42,12.26,5.4,31.89-1.71,16.64-7.44,20.33-10.25,21.3s-8-.16-13-1.42l-.65,8.13c19.82,16-14,25.88-22.51,1.77l2-23.93s-3.22,2.67-8-2.18c-3.9-4-4.82-10.29-1.29-13.34s9.5-1.67,11.44,3.24c0,0,7.76-.62,19-5.7S159.64,87.93,162.18,80.73Z" style="fill:#ffa8a7"></path><path d="M164.79,107.85a2.14,2.14,0,1,1-1.85-2.4A2.14,2.14,0,0,1,164.79,107.85Z" style="fill:#263238"></path><path d="M148.55,107.1a2.15,2.15,0,1,1-1.86-2.41A2.15,2.15,0,0,1,148.55,107.1Z" style="fill:#263238"></path><path d="M147.23,120.77l4.67,2.12a2.52,2.52,0,0,1-3.36,1.37A2.69,2.69,0,0,1,147.23,120.77Z" style="fill:#f28f8f"></path><path d="M166.23,102.25l-3.88-3.44a2.48,2.48,0,0,1,3.59-.3A2.72,2.72,0,0,1,166.23,102.25Z" style="fill:#263238"></path><polygon points="155.54 103.68 153.8 117.28 160.66 116.02 155.54 103.68" style="fill:#f28f8f"></polygon><path d="M144.33,132.5c-5.31-1.13-16.08-5.17-17.46-9.67a11.34,11.34,0,0,0,3.43,5.87c3.07,3.09,13.76,7.14,13.76,7.14Z" style="fill:#f28f8f"></path><path d="M121.21,141.83c2.17,7.31,14.86,15.92,25.21,11.65,7.31-3-2.74-12.85-2.74-12.85l9.29-.15s12.48,10,17.85,16.37c4.49,5.36,15.34,18.27,2.26,30.81l2.69,22.05,12,14.6S178.9,241.74,159,245.07A76.71,76.71,0,0,1,123.93,243s-.55,12.31-13.37,19.13c-4-2.38-14.56-32.93-10.91-66.74,1.94-18,4.45-50.56,4.45-50.56Z" style="fill:#fafafa"></path></g><path d="M188.05,188.88c1.69,2.58,3.19,12-6.19,21.61s-21.4,17.52-39,18.38-35.15-6.82-33.35-18.69,17.27-14.72,24.23-17.38,17-15.92,30.24-15.41S188.05,188.88,188.05,188.88Z" style="fill:#AB2A67"></path><path d="M188.05,188.88c1.69,2.58,3.19,12-6.19,21.61s-21.4,17.52-39,18.38-35.15-6.82-33.35-18.69,17.27-14.72,24.23-17.38,17-15.92,30.24-15.41S188.05,188.88,188.05,188.88Z" style="fill:#fff;opacity:0.7000000000000001"></path><path d="M188.05,188.88a47.36,47.36,0,0,0-10.86-7.72c-8.12,1.35-15.51,3.44-13.37,6.5,4.39,6.27,12.73,5.47,16.21,6.2s1.23,6.59-.32,11.4-10.89,8-11.58,7.07.43-4.16,1.2-7.07a2.59,2.59,0,0,0-2.11-3.39s-7.29,11.28-13.91,12.32-25.57-3.53-29.38-6-3.13-8.15,0-12c-6.53,2.52-13.27,6.41-14.42,14-1.8,11.87,15.71,19.55,33.35,18.69s29.67-8.79,39-18.38S189.74,191.46,188.05,188.88Z" style="opacity:0.05"></path><path d="M179.43,164.92a8.33,8.33,0,0,1-8.34,8.34c-3.33,0-5.84-3-6.29-6.11a10.79,10.79,0,0,1,.71-5.39,7.14,7.14,0,0,1,3.22-4,6.21,6.21,0,0,1,2.93-1,7.22,7.22,0,0,1,3.68,1A8.4,8.4,0,0,1,179.43,164.92Z" style="fill:#455a64"></path><path d="M195.36,175.31c0,5-1.17,8.37-4.94,11-2.83,2-6.6,4.89-12.16,5.43-7.55.72-14.25-1.92-17.42-8a9.25,9.25,0,0,1-.71-6.69c.55-2,1.86-3.57,2.89-5.29s1.48-3.71,2.42-5.5a15.51,15.51,0,0,1,3.42-4.27,13.1,13.1,0,0,1,4.47-2.88,15.85,15.85,0,0,1,5.21-.8A16.56,16.56,0,0,1,195.36,175.31Z" style="fill:#ffa8a7"></path><path d="M180,177.41c0,.29-.41-.55-1.43-1.21a3.23,3.23,0,0,0-2.12-.49,3,3,0,0,0-.52.11c-.28.08-.25-.3.28-.66a2.43,2.43,0,0,1,3.78,1.73A3,3,0,0,1,180,177.41Z" style="fill:#b16668"></path><path d="M168.86,172.32c-.05.26-.3-.53-1.14-1.23a2.84,2.84,0,0,0-1.84-.66,3.59,3.59,0,0,0-.47,0c-.26,0-.19-.29.31-.55a2.11,2.11,0,0,1,1-.24,2.08,2.08,0,0,1,2.19,2.19A1.8,1.8,0,0,1,168.86,172.32Z" style="fill:#b16668"></path><path d="M169.81,176.4c-.9-.31-2.24.48-1.44,1.09s3.06,1.81,3.14,1.25A3.21,3.21,0,0,0,169.81,176.4Z" style="fill:#f28f8f"></path><path d="M167.44,181.42l3.63.79a1.86,1.86,0,0,1-3.63-.79Z" style="fill:#b16668"></path><path d="M197.86,176.87a13.34,13.34,0,0,1-7.31,11.91,17.83,17.83,0,0,1-4,1.3h-.06a11.24,11.24,0,0,1-1.26.13h-.49a4.91,4.91,0,0,1-.59,0,9.66,9.66,0,0,0,2.12-4.66c.73,1.19,3.08.55,4-.4a3.93,3.93,0,0,0,1.17-3.94,2.56,2.56,0,0,0-3.68-1.09c-.57.44-1,1.22-1.67,1.3a1,1,0,0,1-.54-.11,1.52,1.52,0,0,1-.79-1.1,3.15,3.15,0,0,1,.49-1.87,7.09,7.09,0,0,0,.79-1.79c.38-1.87-1.26-3.8-.6-5.59.26-.71.86-1.49.43-2.11a1.46,1.46,0,0,0-.87-.49c-2.75-.8-5.65-1-8.36-2a.9.9,0,0,1-.21-.08c-2.64-.95-5.17-2.74-6-5.41a12.62,12.62,0,0,1-.36-2,8.25,8.25,0,0,1,.05-2.38,6.15,6.15,0,0,1,1.67-3.35c.32-.3.77-.59,1.17-.42s.53.78.65,1.26a3.25,3.25,0,0,0,1.44,2c.13-.46.18-.93.29-1.39a2.9,2.9,0,0,1,.55-1.3,1.43,1.43,0,0,1,1.25-.56c.57.08.65.49.85.91a9.8,9.8,0,0,0,.55.87,6.83,6.83,0,0,0,1.92,2.05c2.29,1.54,9.34.87,13.45,5.63a8.08,8.08,0,0,1,1.51,7,.18.18,0,0,0,0,0l.19.19,0,0A13.31,13.31,0,0,1,197.86,176.87Z" style="fill:#455a64"></path><path d="M182,181.42a3.2,3.2,0,1,1-3.13-2.54A2.88,2.88,0,0,1,182,181.42Z" style="fill:#f28f8f;opacity:0.5"></path><path d="M165.74,175a3.2,3.2,0,0,1-5.15-3.56c.79-1.15,2.59-1.29,4-.31A2.88,2.88,0,0,1,165.74,175Z" style="fill:#f28f8f;opacity:0.5"></path><path d="M104.1,144.81C96.15,146,91.37,151,89.46,166.39c-1.48,11.94-.76,46.7-.91,52.38-.16,6.13,3.09,10.93,11.1,12.55s33,3.87,53.69.8c9.12-1.36,19.89-5.62,24.45-10.39,2.92-4.22,4.07-11.24,4.07-11.24a20,20,0,0,1-14.75,4.94,2.35,2.35,0,0,1-1.93-1.29,3.22,3.22,0,0,1,.19-2.35c1-2.73,2.95-5.33,2.66-8.36a2,2,0,0,0-.81-1.56,1.8,1.8,0,0,0-1.7.08c-1.8.94-2.51,3.26-4,4.54a23.34,23.34,0,0,0-4.75,6c-.77,1.32-1,2.89-2.34,3.8s-3.23,1-4.81,1.11c-7.7.49-36.9-5.87-36.9-5.87l1.16-36.48S119.68,149.7,104.1,144.81Z" style="fill:#ffa8a7"></path><path d="M193.21,412.47a20.8,20.8,0,0,0-1.77-4.77c-1.89-3.67-4.66-6.1-7.15-5.91a3.3,3.3,0,0,0-1.45.46c-.75.44-7.92,4.58-8.34,4.81a4.65,4.65,0,0,0-1.89,2.23c-.16.34-.33.66-.5,1l-.51-.07c-17.41-3-39.65-12.06-58.51-22.95a310.16,310.16,0,0,1-58.8-44.9c-4-3.9-7.14-10-9.21-16.59a19,19,0,0,0-2.8-5.68c-2.42-3.27-5.21-4.31-7.21-3.09-.79.47-6.8,3.87-8.41,4.86a4.85,4.85,0,0,0-1.92,2.46c-1.27,3.13-.83,7.85.86,11.93a.36.36,0,0,0,0,.07l.52,1.14a17.11,17.11,0,0,0,1.6,2.65,12.83,12.83,0,0,0,1.18,1.39c22.43,25.29,50.57,48.25,75.75,62.79s53.38,24.09,75.83,24.68a3.68,3.68,0,0,0,.69,0,3.16,3.16,0,0,0,1.36-.4c.12-.07,8-4.62,8.37-4.84a3,3,0,0,0,.38-.24,2.59,2.59,0,0,0,.54-.46C193.69,421.17,194.31,417.1,193.21,412.47Z" style="fill:#455a64"></path><path d="M184.8,417.33a20.92,20.92,0,0,0-1.77-4.77c-1.9-3.67-4.66-6.11-7.15-5.91a4,4,0,0,0-3.27,2.64c-2,4.4-5.42,6.45-9.42,5.77-17.41-3-39.66-12.07-58.51-22.95a311,311,0,0,1-58.81-44.9c-4-3.9-7.14-9.95-9.2-16.6a19.37,19.37,0,0,0-2.8-5.67c-2.42-3.27-5.21-4.31-7.21-3.09a4.85,4.85,0,0,0-1.92,2.46c-1.27,3.13-.83,7.85.86,11.93a.36.36,0,0,0,0,.07l.52,1.14a17.11,17.11,0,0,0,1.6,2.65,12.83,12.83,0,0,0,1.18,1.39c22.43,25.29,50.57,48.25,75.75,62.79s53.38,24.09,75.83,24.68a3.68,3.68,0,0,0,.69,0,3.24,3.24,0,0,0,1.7-.63,2,2,0,0,0,.53-.45C185.27,426,185.9,422,184.8,417.33Z" style="fill:#37474f"></path><path d="M193.21,412.47a20.55,20.55,0,0,0-1.77-4.76c-1.89-3.67-4.66-6.11-7.15-5.92a3.3,3.3,0,0,0-1.45.46c-.76.44-7.92,4.58-8.34,4.81a.08.08,0,0,0,0,0,3.3,3.3,0,0,1,1.42-.45c2.48-.2,5.25,2.25,7.14,5.91a20.64,20.64,0,0,1,1.78,4.77c1.09,4.63.47,8.7-1.37,10.57a2.31,2.31,0,0,1-.53.46l-.12.09c1.27-.74,7.77-4.5,8.15-4.7a3.11,3.11,0,0,0,.38-.25,2.32,2.32,0,0,0,.54-.46C193.68,421.17,194.31,417.1,193.21,412.47Z" style="fill:#263238"></path><path d="M81.06,247.48c-4.15-52.87-19.56-81.91-24.28-118.17,0-.22-.06-.45-.08-.67-.69-5-.9-9.69-4.39-11.7a2.48,2.48,0,0,0-2.51-.36l-8.39,4.84a2.49,2.49,0,0,1,2.49.36c3.49,2,3.7,6.75,4.39,11.71,0,.23.05.45.08.68,4.71,36.27,20.12,65.3,24.28,118.17s-4.06,79.47-16.19,104.73l8.33-4.81C76.91,327,85.2,300.36,81.06,247.48Z" style="fill:#263238"></path><path d="M72.65,252.34c-4.16-52.87-19.57-81.9-24.28-118.17,0-.23-.06-.45-.08-.68-.69-5-.9-9.69-4.39-11.71a2.49,2.49,0,0,0-2.49-.36c-1.34.77-1.55,3.69-1,7.54.07.6.14,1.21.23,1.82C45.4,167.05,60.81,197.45,65,250.33s-4.13,74.35-16.27,99.61c2.38,2.28,5,4.67,7.78,7.13C68.59,331.81,76.79,305.22,72.65,252.34Z" style="fill:#37474f"></path><path d="M140.5,359.12,70,318.41c.73-3.48,1.34-7.05,1.85-10.65L139,346.53C140.06,347.1,141,359.46,140.5,359.12Z" style="fill:#37474f"></path><polygon points="147.38 341.68 80.22 302.9 71.84 307.76 138.97 346.53 147.38 341.68" style="fill:#263238"></polygon><path d="M153,412.77c-12.13-39.26-16.37-68.43-16.26-121.67,2.41.84,4.94,1.75,7.55,2.71-.11,53.24,3.36,79,16.72,120.84Q157,413.86,153,412.77Z" style="fill:#37474f"></path><path d="M161,414.65c-13.36-41.84-16.83-67.6-16.72-120.84l8.41-4.86c-.11,53.24,3.37,79,16.73,120.84Z" style="fill:#263238"></path><path d="M72.59,301.55c-.17,1.74-.44,3.9-.75,6.21l64.85-16.66-10-3.43-54.1,13.88" style="fill:#37474f"></path><polygon points="138.97 346.53 102.49 299.89 106.42 298.88 138.33 339.69 138.97 346.53" style="fill:#37474f"></polygon><path d="M138.34,339.68l-31.92-40.8,10.16-2.61,20.69,26.44Q137.62,330.93,138.34,339.68Z" style="fill:#263238"></path><polygon points="122.18 286.13 96.82 292.63 98.58 294.88 126.69 287.67 122.18 286.13" style="fill:#263238"></polygon><polygon points="96.82 292.63 80.98 296.7 72.59 301.55 98.58 294.88 96.82 292.63" style="fill:#263238"></polygon><polygon points="96.82 292.63 80.98 296.7 72.59 301.55 98.58 294.88 96.82 292.63" style="opacity:0.15"></polygon><path d="M110.9,289l-8.4,4.86-18.3-23.4a153.85,153.85,0,0,0,19.07,8.77Z" style="fill:#263238"></path><path d="M110.9,289l-8.4,4.86-18.3-23.4a153.85,153.85,0,0,0,19.07,8.77Z" style="opacity:0.15"></path><path d="M102.5,293.88l-3.92,1L73.31,262.56a48.57,48.57,0,0,0,10.89,7.92Z" style="fill:#37474f"></path><path d="M165.35,281.45h0C141.2,267.51,100.4,264.88,80.27,239l-8.41,4.86c.67,6.59,1.16,12.87,1.45,18.75,12.89,13.18,48.41,22.9,70.33,31,3.18,1.18,6.5,4.22,9,8.8,1.49,2.75,3.51,4.85,5.67,5.46a3.46,3.46,0,0,0,2.8-.33c1.28-.77,7.51-4.35,8.3-4.79,1.34-.74,2.32-2.44,2.64-4.84C172.87,291.67,169.56,283.88,165.35,281.45Z" style="fill:#455a64"></path><path d="M156.94,286.31h0c-24.16-13.94-65-16.57-85.08-42.5.67,6.59,1.16,12.87,1.45,18.75,12.89,13.18,48.41,22.9,70.33,31,3.18,1.18,6.5,4.22,9,8.8,1.49,2.75,3.51,4.85,5.67,5.46,2.66.75,4.81-1.3,5.33-5.1C164.46,296.53,161.14,288.74,156.94,286.31Z" style="fill:#37474f"></path></g></g></svg>