<svg width="100" height="100" viewBox="0 0 100 100" fill="none" xmlns="http://www.w3.org/2000/svg">
<path d="M50 100C77.6142 100 100 77.6142 100 50C100 22.3858 77.6142 0 50 0C22.3858 0 0 22.3858 0 50C0 77.6142 22.3858 100 50 100Z" fill="#FFD9E4"/>
<path opacity="0.8" d="M74.8644 25.1331C68.0203 18.289 56.9233 18.289 50.0791 25.1331L50 25.2122L49.9209 25.1331C43.0767 18.289 31.9797 18.289 25.1356 25.1331C18.2717 31.997 18.2915 43.1138 25.1752 49.9382L43.4921 68.1562C47.0922 71.7365 52.9078 71.7365 56.5079 68.1562L74.8248 49.9382C81.7085 43.1138 81.7283 31.997 74.8644 25.1331Z" fill="white"/>
<path d="M47.508 51.3029C46.7167 51.6986 46.064 52.3711 45.6881 53.2217L45.6684 53.281C45.609 53.2019 45.5695 53.1426 45.5299 53.0634L41.554 46.0808V53.3404C41.554 53.3799 41.554 53.3997 41.554 53.4393V60.501L39.9319 63.3494C39.6155 63.9231 39.5166 64.5956 39.6946 65.2286C39.8726 65.8616 40.288 66.3957 40.8616 66.7122C41.0792 66.8308 41.3166 66.9297 41.554 66.9693V75.4552C41.554 76.5432 40.6638 77.4333 39.5759 77.4333C38.488 77.4333 37.5978 76.5432 37.5978 75.4552V54.725H34.3538V75.475C34.3538 76.563 33.4636 77.4531 32.3757 77.4531C31.2878 77.4531 30.3976 76.563 30.3976 75.475V53.4591C30.3976 53.4393 30.3976 53.4195 30.3976 53.4195V46.1006L27.6481 50.9271L26.4217 53.0832C26.0656 53.7162 25.3931 54.0723 24.7008 54.0723C24.3645 54.0723 24.0282 53.9931 23.7315 53.8151C22.9007 53.3404 22.5447 52.3711 22.8216 51.5205C22.8612 51.3821 22.9205 51.2634 22.9996 51.1249L30.7141 37.5553C30.8328 37.2586 30.991 37.0015 31.1889 36.7443L31.2086 36.7245C31.9207 35.7948 33.0285 35.1816 34.2944 35.1816H37.6769C38.9429 35.1816 40.0506 35.7751 40.7627 36.7048L40.7825 36.7245C40.9605 36.9817 41.1386 37.2388 41.2573 37.5356L43.4134 41.3137L46.4003 46.5754C46.2222 47.0501 46.1431 47.5446 46.1431 48.0787C46.1035 49.3447 46.6376 50.4919 47.508 51.3029Z" fill="#AB2A67"/>
<path d="M40.5447 30.1182C40.5447 32.6501 38.4875 34.7073 35.9556 34.7073C33.4236 34.7073 31.3862 32.6501 31.3862 30.1182C31.3862 27.5862 33.4434 25.5488 35.9556 25.5488C38.4875 25.5488 40.5447 27.5862 40.5447 30.1182Z" fill="#AB2A67"/>
<g opacity="0.8">
<path d="M35.9556 34.7073C38.4875 34.7073 40.5447 32.6501 40.5447 30.1182C40.5447 27.5862 38.4875 25.5488 35.9556 25.5488C33.4236 25.5488 31.3862 27.606 31.3862 30.1182C31.3862 32.6501 33.4434 34.7073 35.9556 34.7073Z" fill="#AB2A67"/>
<path d="M43.3737 41.3139C40.011 45.3888 35.5208 48.5141 30.3778 50.1757V46.0811L27.6283 50.9076C26.0656 51.2439 24.4436 51.4417 22.8018 51.501C22.8413 51.3625 22.9007 51.2439 22.9798 51.1054L30.6943 37.5358C30.813 37.2391 30.9712 36.9819 31.169 36.7248L31.1888 36.705C31.9009 35.7753 33.0086 35.1621 34.2746 35.1621H37.6571C38.9231 35.1621 40.0308 35.7555 40.7429 36.6852L40.7627 36.705C40.9407 36.9622 41.1187 37.2193 41.2374 37.516L43.3737 41.3139Z" fill="#AB2A67"/>
</g>
<path d="M53.7193 51.3828C53.6797 51.3631 53.6204 51.3235 53.561 51.3037C53.6204 51.3235 53.6599 51.3433 53.7193 51.3828Z" fill="#AB2A67"/>
<path d="M59.7326 65.8622C59.4952 66.0007 59.2578 66.06 59.0007 66.06C58.4864 66.06 57.9919 65.7831 57.7149 65.3083L54.728 60.0467V79.4516C54.728 80.2626 54.0555 80.9351 53.2445 80.9351C52.4335 80.9351 51.7609 80.2626 51.7609 79.4516V66.5545H49.3279V79.4516C49.3279 80.2626 48.6554 80.9351 47.8443 80.9351C47.0333 80.9351 46.3608 80.2626 46.3608 79.4516V66.5545V60.0467L43.3739 65.3083C43.097 65.7831 42.6024 66.06 42.0881 66.06C41.831 66.06 41.5936 66.0007 41.3563 65.8622C40.6442 65.4666 40.387 64.5567 40.8024 63.8446L44.4816 57.3763L46.5982 53.6575C47.0333 52.6091 48.0817 51.8574 49.2883 51.8574H51.8401C53.0467 51.8574 54.0951 52.6091 54.5302 53.6575L56.6468 57.3763L60.326 63.8446C60.7018 64.5567 60.4447 65.4666 59.7326 65.8622Z" fill="#AB2A67"/>
<path d="M53.976 48.0791C53.976 49.2659 53.3628 50.3143 52.4529 50.9473C51.899 51.3231 51.2462 51.5209 50.5341 51.5209C49.822 51.5209 49.1693 51.3033 48.6154 50.9473C47.6857 50.3341 47.0923 49.2857 47.0923 48.0791C47.0923 46.1801 48.6352 44.6372 50.5341 44.6372C52.4331 44.6372 53.976 46.1801 53.976 48.0791Z" fill="#AB2A67"/>
<path d="M77.357 53.7958C77.0405 53.9739 76.7043 54.053 76.3878 54.053C75.6954 54.053 75.0229 53.6969 74.6668 53.0639L73.4404 50.9078L70.6909 46.0813V47.6638L71.581 50.4529L75.3394 62.2224H70.6909V75.4953C70.6909 76.5833 69.8008 77.4734 68.7128 77.4734C67.6249 77.4734 66.7348 76.5833 66.7348 75.4953V62.2026H63.4907V75.4755C63.4907 76.5635 62.6006 77.4536 61.5126 77.4536C60.4247 77.4536 59.5346 76.5635 59.5346 75.4755V66.9896H59.5544C59.5939 66.9896 59.6335 66.9698 59.673 66.95C59.6928 66.95 59.7126 66.9302 59.7522 66.9302C59.7719 66.9302 59.7917 66.9105 59.8115 66.9105C59.8906 66.8907 59.9895 66.8511 60.0687 66.8116C60.1082 66.7918 60.1676 66.772 60.2269 66.7324C60.8005 66.3962 61.2159 65.8819 61.394 65.2291C61.572 64.5961 61.4929 63.9236 61.1566 63.3499L60.5038 62.2026L59.5346 60.5015L56.9037 55.8926L59.5346 47.6638V46.0813L55.5586 53.0639C55.5191 53.1431 55.4597 53.2222 55.4202 53.2815L55.4004 53.2222C55.3806 53.1628 55.3411 53.1035 55.3015 53.0244C55.2422 52.9057 55.1828 52.8068 55.1235 52.7079C55.1037 52.6683 55.0839 52.6288 55.0443 52.5892C54.8268 52.2727 54.5696 51.976 54.2729 51.7386C54.2333 51.6991 54.1938 51.6793 54.1542 51.6397C54.0553 51.5606 53.9564 51.5013 53.8575 51.4221C53.8179 51.4024 53.7784 51.3826 53.7388 51.343C53.6993 51.3232 53.6399 51.2837 53.5806 51.2639C54.4311 50.4529 54.985 49.3056 54.985 48.0396C54.985 47.5055 54.8861 47.011 54.7279 46.5363L57.7147 41.2944L59.8708 37.5163C59.9895 37.2196 60.1676 36.9426 60.3456 36.7053C60.3456 36.7053 60.3456 36.6855 60.3654 36.6855C61.0775 35.7558 62.1852 35.1426 63.4512 35.1426H66.8337C68.0996 35.1426 69.2074 35.736 69.9195 36.6657C69.9195 36.6657 69.9195 36.6855 69.9392 36.6855C70.1173 36.9426 70.2953 37.1998 70.414 37.4965L78.1285 51.0661C78.2076 51.1848 78.2472 51.3232 78.3065 51.4617C78.5241 52.3716 78.168 53.3409 77.357 53.7958Z" fill="#AB2A67"/>
<path d="M69.6817 30.1182C69.6817 32.6501 67.6245 34.7073 65.1123 34.7073C62.5804 34.7073 60.543 32.6501 60.543 30.1182C60.543 27.5862 62.6002 25.5488 65.1123 25.5488C67.6245 25.5488 69.6817 27.5862 69.6817 30.1182Z" fill="#AB2A67"/>
<g opacity="0.8">
<path d="M65.1125 34.7073C67.6444 34.7073 69.6818 32.6501 69.6818 30.1182C69.6818 27.5862 67.6246 25.5488 65.1125 25.5488C62.5805 25.5488 60.5431 27.606 60.5431 30.1182C60.5233 32.6501 62.5805 34.7073 65.1125 34.7073Z" fill="#AB2A67"/>
<path d="M73.4205 50.9073C74.9832 51.2436 76.6052 51.4414 78.247 51.5008C78.2075 51.3623 78.1481 51.2436 78.069 51.1051L70.3545 37.5356C70.2358 37.2388 70.0776 36.9817 69.8798 36.7245L69.86 36.7048C69.1479 35.7751 68.0402 35.1816 66.7742 35.1816H63.3917C62.1257 35.1816 61.018 35.7948 60.3059 36.7245C60.3059 36.7245 60.3059 36.7443 60.2861 36.7443C60.1081 37.0015 59.9301 37.2784 59.8114 37.5553L57.6553 41.3335C61.196 45.6457 66.0225 48.8699 71.5414 50.4524L70.6512 47.6633V46.0808L73.4205 50.9073Z" fill="#AB2A67"/>
</g>
<g opacity="0.8">
<path d="M48.6154 50.9277C49.1693 51.3036 49.822 51.5014 50.5341 51.5014C51.2462 51.5014 51.899 51.2838 52.4529 50.9277C53.3628 50.3145 53.976 49.2662 53.976 48.0595C53.976 46.1606 52.4331 44.6177 50.5341 44.6177C48.6352 44.6177 47.0923 46.1606 47.0923 48.0595C47.0923 49.2662 47.7055 50.3145 48.6154 50.9277Z" fill="#AB2A67"/>
<path d="M54.49 53.6575C54.0549 52.6091 53.0065 51.8574 51.7998 51.8574H49.2481C48.0415 51.8574 46.9931 52.6091 46.5579 53.6575L44.4414 57.3763C46.3206 58.1477 48.3778 58.5631 50.5141 58.5631C52.6702 58.5631 54.7076 58.1477 56.5868 57.3763L54.49 53.6575Z" fill="#AB2A67"/>
</g>
</svg>
