<svg width="100" height="100" viewBox="0 0 100 100" fill="none" xmlns="http://www.w3.org/2000/svg">
<path d="M50 100C77.6142 100 100 77.6142 100 50C100 22.3858 77.6142 0 50 0C22.3858 0 0 22.3858 0 50C0 77.6142 22.3858 100 50 100Z" fill="#FFD9E4"/>
<path d="M68.7998 25H31.2998C29.8998 25 28.7998 26.1 28.7998 27.5V75C28.7998 76.4 29.8998 77.5 31.2998 77.5H68.7998C70.1998 77.5 71.2998 76.4 71.2998 75V27.5C71.2998 26.1 70.0998 25 68.7998 25Z" fill="#AB2A67"/>
<path d="M58.7998 75H31.2998V27.5H68.7998V65L58.7998 75Z" fill="#F5E5CF"/>
<path d="M58.7998 75V65H68.7998L58.7998 75Z" fill="#C9C9C9"/>
<path d="M57.5 28.7C57.5 29.4 56.9 29.9 56.2 29.9H43.8C43.1 29.9 42.5 29.3 42.5 28.7V23.7C42.5 23 43.1 22.5 43.8 22.5H56.3C57 22.5 57.6 23.1 57.6 23.7V28.7H57.5Z" fill="#735C00"/>
<path d="M43.7 33.7002H35V42.5002H43.7V33.7002Z" fill="#5C46D0"/>
<path d="M65.0998 41.2002H46.2998V43.7002H65.0998V41.2002Z" fill="#10181E"/>
<path d="M65.0998 35H46.2998V37.5H65.0998V35Z" fill="#10181E"/>
<path d="M65 47.5H35V50H65V47.5Z" fill="#10181E"/>
<path d="M65 53.7002H35V56.2002H65V53.7002Z" fill="#10181E"/>
<path d="M65 60H35V62.5H65V60Z" fill="#10181E"/>
<path d="M52.5 66.2002H35V68.7002H52.5V66.2002Z" fill="#10181E"/>
<path opacity="0.1" d="M68.7996 25.0001H57.5996V23.8001C57.5996 23.1001 56.9996 22.6001 56.2996 22.6001H50.0996V77.6001H68.7996C70.1996 77.6001 71.2996 76.5001 71.2996 75.1001V27.6001C71.2996 26.1001 70.0996 25.0001 68.7996 25.0001Z" fill="black"/>
</svg>
