<svg width="100" height="100" viewBox="0 0 100 100" fill="none" xmlns="http://www.w3.org/2000/svg">
<path d="M50 100C77.6142 100 100 77.6142 100 50C100 22.3858 77.6142 0 50 0C22.3858 0 0 22.3858 0 50C0 77.6142 22.3858 100 50 100Z" fill="#FFD9E4"/>
<path d="M55.3 31.1558L50.3 35.8558L45.3 31.1558H20V70.3558C20 70.3558 35.6 61.7558 50.1 70.4558C50.1 70.4558 50.3 70.6558 50.3 70.5558C50.4 70.5558 50.5 70.4558 50.5 70.4558C65 61.7558 80.6 70.3558 80.6 70.3558V31.1558H55.3Z" fill="#DC5000"/>
<path d="M55.3 30.4556L50.3 35.1556L45.3 30.4556H20V69.6556C20 69.6556 35.6 61.0556 50.1 69.7556C50.1 69.7556 50.3 69.9556 50.3 69.8556C50.4 69.8556 50.5 69.7556 50.5 69.7556C65 61.0556 80.6 69.6556 80.6 69.6556V30.4556H55.3Z" fill="#AB2A67"/>
<path d="M50.6001 36.3558C38.5001 21.5558 22.1001 29.4558 22.1001 29.4558V66.6558C40.5001 59.8558 50.6001 68.6558 50.6001 68.6558C50.6001 68.6558 62.2001 60.2558 79.1001 66.6558V29.4558C79.1001 29.4558 62.6001 21.5558 50.6001 36.3558Z" fill="#C8C8BE"/>
<path d="M22 64.3555V27.1555C22 27.1555 38.5 19.2555 50.5 34.0555V66.4555C50.6 66.3555 38.1 56.3555 22 64.3555Z" fill="#DCDCD2"/>
<path d="M79.1001 64.3555V27.1555C79.1001 27.1555 62.6001 19.2555 50.6001 34.0555V66.4555C50.6001 66.3555 63.0001 56.3555 79.1001 64.3555Z" fill="#F0F0E6"/>
<path d="M28.7998 25.3556V44.4555L32.4998 40.1555L35.8998 44.4555V25.3556C35.9998 25.3556 31.5998 24.5556 28.7998 25.3556Z" fill="#AB2A67"/>
<path d="M54.1999 37.3557L53.3999 36.5557C53.4999 36.4557 61.5999 28.1557 74.4999 30.6557L74.2999 31.7557C61.9999 29.3557 54.2999 37.2557 54.1999 37.3557Z" fill="#646464"/>
<path d="M54.1999 42.6555L53.3999 41.8555C53.4999 41.7555 61.5999 33.4555 74.4999 35.9555L74.2999 37.0555C61.9999 34.6555 54.2999 42.5555 54.1999 42.6555Z" fill="#646464"/>
<path d="M54.1999 47.9558L53.3999 47.1558C53.4999 47.0558 61.5999 38.7558 74.4999 41.2558L74.2999 42.3558C61.9999 40.0558 54.2999 47.8558 54.1999 47.9558Z" fill="#646464"/>
<path d="M73.1999 57.3555C73.1999 58.0555 73.0999 58.6555 73.0999 59.1555C73.0999 59.8555 72.9998 60.4555 72.9998 60.7555C72.9998 61.1555 72.8999 61.3555 72.8999 61.3555C72.8999 61.3555 72.8999 61.1555 72.7999 60.7555C72.7999 60.3555 72.6999 59.7555 72.6999 59.1555C72.5999 57.8555 72.4998 56.2555 72.4998 54.5555C71.5998 52.3555 69.6998 52.7555 68.9998 53.0555C68.9998 55.0555 68.8999 57.0555 68.7999 58.6555C68.7999 59.5555 68.6999 60.2555 68.6999 60.7555C68.6999 61.2555 68.5999 61.5555 68.5999 61.5555C68.5999 61.5555 68.5998 61.2555 68.4998 60.7555C68.4998 60.2555 68.3999 59.5555 68.3999 58.6555C68.2999 56.9555 68.1999 54.6555 68.1999 52.3555C68.1999 51.7555 68.1999 51.2555 68.1999 50.6555C67.2999 48.7555 65.4999 49.0555 64.6999 49.2555C64.6999 49.8555 64.6999 50.4555 64.6999 51.0555C64.6999 52.3555 64.6999 53.6555 64.6999 54.8555C64.6999 56.0555 64.5999 57.2555 64.5999 58.1555C64.5999 59.1555 64.4998 59.9555 64.4998 60.5555C64.4998 61.1555 64.3999 61.4555 64.3999 61.4555C64.3999 61.4555 64.3999 61.1555 64.2999 60.5555C64.2999 59.9555 64.1999 59.1555 64.1999 58.1555C64.1999 57.1555 64.0999 56.0555 64.0999 54.8555C64.0999 53.6555 64.0999 52.3555 64.0999 51.0555C64.0999 49.7555 64.0999 48.4555 64.0999 47.2555C64.0999 46.0555 64.1999 44.8555 64.1999 43.9555C64.1999 43.6555 64.1999 43.2555 64.1999 42.9555C63.8999 41.3555 63.2999 40.3555 61.8999 40.3555C58.9999 40.3555 59.3998 50.8555 59.4998 53.3555C59.5998 55.8555 59.5999 62.1555 59.5999 62.1555L58.2999 54.9555C57.5999 54.9555 54.9999 57.2555 55.2999 64.2555C55.5999 71.2555 61.8999 75.0555 61.8999 75.0555H72.9998C72.9998 75.0555 76.2999 69.8555 76.2999 64.0555C76.1999 57.7555 73.9999 57.2555 73.1999 57.3555Z" fill="#5C46D0"/>
</svg>
